Normalized EMG Linear Envelopes
nRows=128
nColumns=4

endheader
time	 med_gas_r	  soleus_r	 tib_ant_r	
2.125	  0.013197	  0.017523	  0.018176	
2.1875	  0.010484	  0.017988	  0.013944	
2.25	  0.008457	  0.018261	  0.009995	
2.3125	  0.007544	  0.018463	  0.006754	
2.375	  0.007701	  0.019032	  0.004609	
2.4375	  0.008413	  0.020106	  0.003560	
2.5	  0.009009	  0.021331	  0.003273	
2.5625	  0.009111	  0.022447	  0.003424	
2.625	  0.008902	  0.023294	  0.003789	
2.6875	  0.008860	  0.023372	  0.004161	
2.75	  0.009218	  0.022368	  0.004370	
2.8125	  0.009724	  0.021031	  0.004373	
2.875	  0.009942	  0.020571	  0.004262	
2.9375	  0.009658	  0.021250	  0.004163	
3	  0.009006	  0.022193	  0.004170	
3.0625	  0.008309	  0.022372	  0.004336	
3.125	  0.007799	  0.021443	  0.004635	
3.1875	  0.007462	  0.019835	  0.004960	
3.25	  0.007220	  0.018226	  0.005233	
3.3125	  0.007120	  0.017022	  0.005448	
3.375	  0.007279	  0.016249	  0.005559	
3.4375	  0.007801	  0.015766	  0.005462	
3.5	  0.008629	  0.015495	  0.005147	
3.5625	  0.009422	  0.015434	  0.004746	
3.625	  0.009774	  0.015624	  0.004411	
3.6875	  0.009598	  0.016233	  0.004194	
3.75	  0.009162	  0.017532	  0.004068	
3.8125	  0.008775	  0.019721	  0.004002	
3.875	  0.008530	  0.022644	  0.003995	
3.9375	  0.008326	  0.025327	  0.004043	
4	  0.008073	  0.026322	  0.004126	
4.0625	  0.007799	  0.025285	  0.004213	
4.125	  0.007613	  0.023386	  0.004289	
4.1875	  0.007620	  0.021731	  0.004383	
4.25	  0.007809	  0.020549	  0.004545	
4.3125	  0.008047	  0.019789	  0.004776	
4.375	  0.008203	  0.019250	  0.004991	
4.4375	  0.008231	  0.018490	  0.005086	
4.5	  0.008094	  0.017321	  0.004983	
4.5625	  0.007655	  0.015901	  0.004596	
4.625	  0.006618	  0.014359	  0.003898	
4.6875	  0.004786	  0.013200	  0.003180	
4.75	  0.002816	  0.014588	  0.003286	
4.8125	  0.003029	  0.022901	  0.005619	
4.875	  0.009471	  0.043109	  0.011597	
4.9375	  0.027082	  0.077920	  0.021603	
5	  0.059445	  0.125888	  0.034623	
5.0625	  0.103409	  0.179430	  0.049235	
5.125	  0.145776	  0.225369	  0.064344	
5.1875	  0.172420	  0.254630	  0.078688	
5.25	  0.182054	  0.271588	  0.090634	
5.3125	  0.184354	  0.287020	  0.099288	
5.375	  0.187106	  0.303963	  0.105311	
5.4375	  0.193597	  0.316268	  0.110485	
5.5	  0.208240	  0.318479	  0.116797	
5.5625	  0.234838	  0.312638	  0.124927	
5.625	  0.271288	  0.306897	  0.133339	
5.6875	  0.313182	  0.309848	  0.139690	
5.75	  0.359685	  0.324472	  0.142428	
5.8125	  0.409032	  0.345733	  0.141604	
5.875	  0.452600	  0.364637	  0.139925	
5.9375	  0.482094	  0.376081	  0.141340	
6	  0.499196	  0.382643	  0.147409	
6.0625	  0.510888	  0.389717	  0.157029	
6.125	  0.520998	  0.398264	  0.168692	
6.1875	  0.531257	  0.403770	  0.180223	
6.25	  0.540241	  0.403011	  0.188071	
6.3125	  0.538858	  0.399288	  0.189162	
6.375	  0.519589	  0.395094	  0.182743	
6.4375	  0.489396	  0.385568	  0.171143	
6.5	  0.463809	  0.368875	  0.159886	
6.5625	  0.452426	  0.354784	  0.155171	
6.625	  0.456081	  0.355012	  0.159592	
6.6875	  0.472599	  0.371179	  0.169943	
6.75	  0.497749	  0.395651	  0.179586	
6.8125	  0.522367	  0.421140	  0.184723	
6.875	  0.538330	  0.446169	  0.187022	
6.9375	  0.546078	  0.469291	  0.187985	
7	  0.547625	  0.480522	  0.185463	
7.0625	  0.540959	  0.466748	  0.178620	
7.125	  0.529033	  0.429981	  0.170375	
7.1875	  0.522268	  0.392101	  0.163452	
7.25	  0.527118	  0.375500	  0.159202	
7.3125	  0.539443	  0.385900	  0.158766	
7.375	  0.549961	  0.416041	  0.161378	
7.4375	  0.552793	  0.454526	  0.164839	
7.5	  0.547651	  0.487907	  0.169668	
7.5625	  0.536555	  0.507679	  0.178672	
7.625	  0.523552	  0.518746	  0.191565	
7.6875	  0.515580	  0.530754	  0.203197	
7.75	  0.516051	  0.544119	  0.208239	
7.8125	  0.519077	  0.553803	  0.206370	
7.875	  0.518669	  0.560298	  0.201358	
7.9375	  0.521706	  0.568195	  0.196129	
8	  0.543674	  0.578175	  0.191567	
8.0625	  0.594234	  0.585219	  0.189454	
8.125	  0.667762	  0.582813	  0.192669	
8.1875	  0.738610	  0.569576	  0.200789	
8.25	  0.772277	  0.551158	  0.207760	
8.3125	  0.758120	  0.532410	  0.206390	
8.375	  0.721892	  0.515920	  0.194685	
8.4375	  0.693499	  0.512772	  0.177014	
8.5	  0.677701	  0.540804	  0.160856	
8.5625	  0.662868	  0.602114	  0.153034	
8.625	  0.641120	  0.666094	  0.156339	
8.6875	  0.616577	  0.688923	  0.168321	
8.75	  0.603421	  0.659513	  0.183454	
8.8125	  0.612609	  0.610410	  0.195798	
8.875	  0.636865	  0.575304	  0.201427	
8.9375	  0.656275	  0.559379	  0.201008	
9	  0.658609	  0.555761	  0.198886	
9.0625	  0.647413	  0.561220	  0.199038	
9.125	  0.636046	  0.568396	  0.203237	
9.1875	  0.638092	  0.567426	  0.211056	
9.25	  0.653049	  0.560798	  0.219643	
9.3125	  0.662027	  0.558633	  0.224805	
9.375	  0.647077	  0.560270	  0.222229	
9.4375	  0.607015	  0.556127	  0.208081	
9.5	  0.549576	  0.540355	  0.182245	
9.5625	  0.478374	  0.506837	  0.150867	
9.625	  0.390027	  0.444886	  0.121758	
9.6875	  0.283055	  0.351698	  0.098668	
9.75	  0.170879	  0.241368	  0.081745	
9.8125	  0.078592	  0.138309	  0.069717	
9.875	  0.022606	  0.063766	  0.060570	
9.9375	  0.000157	  0.024695	  0.052613	
10	 -0.001987	  0.012985	  0.044988	
10.0625	  0.003333	  0.013895	  0.037194	
